<svg width="96mm" height="47mm" version="1.1" viewBox="0 0 96 47" xmlns="http://www.w3.org/2000/svg">
 <g transform="matrix(1.3431 0 0 1.3431 -16.735 -8.747)" opacity=".648" stroke-width=".74455">
  <path d="m45.097 33.969v-9.2287c0.03994-3.4358 2.0175-4.6543 3.4158-4.7342h5.4533v5.4533h-3.6355v8.4696c-1.1186 1.2385-4.3147 0.99878-5.2336 0.03995z" fill="#bdbdbd"/>
  <path d="m54.106 25.845h-1.9539c-0.78909-0.53473-0.86424-4.9328 0-6.1508h2.217v6.149z" fill="#767676"/>
  <ellipse cx="54.302" cy="22.758" rx="1.1397" ry="3.1667" fill="#e0e0e0" opacity="1" style="paint-order:stroke fill markers"/>
  <g transform="matrix(.48774 0 0 .48774 114.17 33.778)" stroke-width="1.5265">
   <ellipse cx="-122.42" cy="-22.584" rx="1.7201" ry="5.9795" fill="#767676" opacity="1" style="paint-order:stroke fill markers"/>
   <ellipse cx="-122.92" cy="-22.528" rx="1.9249" ry="5.529" fill="#82d4fb" opacity="1" style="paint-order:stroke fill markers"/>
  </g>
  <ellipse transform="rotate(-9.638)" cx="50.135" cy="30.514" rx=".30097" ry=".67997" fill="#333" opacity="1" style="paint-order:stroke fill markers"/>
 </g>
 <path d="m56.25 9.4709c2.6529 0.029279 3.4828 0.23657 4.9219 1.6446 1.3179 1.2894 1.758 1.8178 2.8209 3.5804 1.1703 1.9406 0.26479 3.8883-1.3251 3.5509-0.92165-0.19558-2.1101-1.1482-3.648-2.857-3.7278 3.292-7.9231 2.7386-11.383-0.75884" fill="#e6e6e6" fill-opacity=".45425" stroke="#ccc" stroke-opacity=".55229" stroke-width=".026458"/>
 <path d="m56.25 9.4709-18.857 4.3633 14.873 1.2141c2.6939-0.98648 4.553-2.9215 3.9839-5.5774z" fill="#666"/>
 <ellipse cx="62.776" cy="16.907" rx=".37942" ry=".37942" fill="#333" fill-opacity=".9902" style="paint-order:stroke fill markers"/>
 <path d="m61.917 17.027h-0.94854l-1.6125 2.1817 2.5611-1.1193z" fill="#f5ca4e"/>
 <path d="m43.209 33.83c-0.01566 0.0011-0.04913 0.0032-0.05025 0.0032l-0.0545 0.0074c-0.0046 9.76e-4 -0.0093 0.0017-0.01389 0.0021-1.2362 0.17001-2.4805 0.40143-3.6799 0.8152-4.39e-4 1e-6 -6.56e-4 1e-6 -0.0013 0l-0.0066 0.0021c-0.60222 0.21839-1.2409 0.47494-1.7673 0.94094l-2e-3 0.0021c-0.0013 8.65e-4 -2e-3 0.0013-0.0034 0.0021-4.33e-4 7.13e-4 -6.56e-4 0.0013-0.0013 0.0021-0.25759 0.23335-0.51285 0.57201-0.48938 1.0113 0.0262 0.48665 0.35671 0.81895 0.65179 1.0486 0.0013 6.96e-4 2e-3 0.0013 0.0034 0.0021 0.0026 0.0017 0.0052 0.0034 0.0074 0.0054 0.59572 0.44767 1.2826 0.6999 1.9425 0.9143 0.0013 3.27e-4 0.0034 6.81e-4 0.0046 0.0011 0.14223 0.0511 0.31858-0.0346 0.36542-0.17796 0.04683-0.14335-0.04507-0.31574-0.19019-0.35805-0.0013-3.41e-4 -2e-3 -6.94e-4 -0.0034-0.0011-0.64302-0.20892-1.2674-0.44778-1.7759-0.82905-4.4e-4 -3.53e-4 -6.55e-4 -7.08e-4 -0.0013-0.0011-0.23927-0.18636-0.42635-0.39624-0.43915-0.63404-0.01021-0.19106 0.11141-0.37427 0.28315-0.53707 0.0059-0.0094 0.01316-0.01807 0.02136-0.02557 4.32e-4 -3.58e-4 6.55e-4 -7.13e-4 0.0013-0.0011 0.42994-0.38111 0.99392-0.61754 1.5793-0.83012 5.2e-5 -1.6e-5 0.0013 2.9e-5 0.0013 0 3.94e-4 -1.07e-4 2e-3 -0.0019 0.0034-0.0021 0.0013-3.85e-4 0.0034-7.4e-4 0.0046-0.0011 0.0077-0.0026 0.01585-0.0038 0.02352-0.0064 1.1392-0.39028 2.3361-0.61694 3.5453-0.78323 4.39e-4 -1e-6 6.55e-4 -1e-6 0.0013 0l0.06413-0.0086c6.56e-4 -3.61e-4 0.0013-7.2e-4 2e-3 -0.0011 0.1406-0.01636 0.25639-0.15201 0.25002-0.29305-0.0066-0.14104-0.13416-0.26589-0.27568-0.2696zm8.4548 0.04049c-0.13946 0.0066-0.26405 0.13045-0.27034 0.2696-0.0066 0.13948 0.107 0.27456 0.24576 0.29305 6.56e-4 -5e-6 0.0013-5e-6 2e-3 0 1.1913 0.17404 2.3711 0.40618 3.4865 0.80987 6.54e-4 -6e-6 0.0013-6e-6 2e-3 0 0.53592 0.20335 1.0487 0.43077 1.4425 0.78217 6.56e-4 3.5e-4 0.0013 7.08e-4 2e-3 0.0011 0.18003 0.16567 0.30422 0.34813 0.30346 0.54027v0.0021c1.2e-5 0.21817-0.15573 0.41918-0.36756 0.59675-6.49e-4 7.17e-4 -0.0013 0.0013-2e-3 0.0021-0.46861 0.38139-1.0611 0.61799-1.6744 0.82905-4.33e-4 3.6e-4 -6.56e-4 7.15e-4 -0.0013 0.0011-1.1734 0.38506-2.4027 0.60591-3.6425 0.76618-0.0067 9.16e-4 -0.0135 0.0013-0.02031 0.0011-2e-3 1.76e-4 -0.0026-1.76e-4 -0.0046 0-0.96896 0.12131-1.9436 0.19798-2.9213 0.23657-6.55e-4 5e-6 -0.0013 5e-6 -2e-3 0-0.14974 0.0035-0.28267 0.14485-0.27674 0.29411 0.0059 0.14926 0.14962 0.27895 0.29918 0.27067 4.37e-4 -4e-6 6.54e-4 -4e-6 0.0013 0 1.0002-0.03947 2.002-0.11651 2.9972-0.2419 1.2601-0.16288 2.5272-0.39012 3.7526-0.79282 0.0013-3.86e-4 0.0034-7.4e-4 0.0046-0.0011 0.6294-0.21661 1.2897-0.46959 1.8496-0.92602 0.0013-0.0011 2e-3 -0.0021 0.0034-0.0032 0.22027-0.18388 0.42895-0.47354 0.50647-0.82905 0.0034-0.01524 0.0094-0.0297 0.01815-0.04263 0.03137-0.04678 0.04854-0.10252 0.04808-0.15878v-0.0011-0.0011c-5e-6 -7.09e-4 -5e-6 -0.0013 0-0.0021 5.51e-4 -0.05264-0.01428-0.10524-0.04166-0.15025-0.0071-0.01182-0.01222-0.02482-0.01494-0.03836-0.06491-0.3204-0.23689-0.58811-0.42848-0.76512-0.0013-0.0013-0.0034-0.0028-0.0046-0.0042-0.0013-6.94e-4 -2e-3 -0.0013-0.0034-0.0021-0.48491-0.43356-1.0699-0.68172-1.6241-0.89192-4.4e-4 -3.53e-4 -6.56e-4 -7.08e-4 -0.0013-0.0011l-2e-3 -0.0011-0.0034-0.0011c-1.1708-0.42388-2.3901-0.65978-3.5998-0.83651-6.55e-4 5e-6 -0.0013 5e-6 -2e-3 0-0.01841-0.0031-0.03695-0.0048-0.05555-0.0042z" color="#000000" color-rendering="auto" dominant-baseline="auto" fill="#ececec" fill-opacity=".99673" image-rendering="auto" opacity=".544" shape-rendering="auto" solid-color="#000000" style="font-feature-settings:normal;font-variant-alternates:normal;font-variant-caps:normal;font-variant-ligatures:normal;font-variant-numeric:normal;font-variant-position:normal;isolation:auto;mix-blend-mode:normal;paint-order:stroke fill markers;shape-padding:0;text-decoration-color:#000000;text-decoration-line:none;text-decoration-style:solid;text-indent:0;text-orientation:mixed;text-transform:none;white-space:normal"/>
 <path d="m37.285 33.529c-0.03499 0.0048-0.10659 0.01528-0.10738 0.01569-0.87315 0.28352-1.746 0.62784-2.5472 1.1258a0.15347 0.15347 0 0 1-0.0039 0.0012c-2e-3 0.0013-0.0039 0.0035-0.0059 0.0048a0.15347 0.15347 0 0 1-0.0026 0.0012c-0.54179 0.34637-1.1047 0.78179-1.4214 1.4299-0.18853 0.38551-0.24156 0.83398-0.11945 1.2585a0.15347 0.15347 0 0 1 0 0.0012c0.14617 0.52022 0.49168 0.922 0.85309 1.2404a0.15347 0.15347 0 0 1 0.0039 0.0024c0.08252 0.07738 0.15316 0.0933 0.22202 0.08568 0.06886-0.0077 0.13896-0.04623 0.19065-0.10498 0.05168-0.05875 0.08204-0.13344 0.08084-0.20271-0.0013-0.06926-0.0262-0.13796-0.11342-0.20995a0.15347 0.15347 0 0 1-0.0039-0.0036c-0.31545-0.27794-0.57725-0.60011-0.67932-0.96531a0.15347 0.15347 0 0 1 0-0.0024 0.15347 0.15347 0 0 1-0.0059-0.03861l0.0059 0.03861c-0.07905-0.27484-0.04469-0.58305 0.08447-0.84705 0.23816-0.4874 0.6959-0.86009 1.1946-1.1813l0.0059-0.0048a0.15347 0.15347 0 0 1 0.0059-6e-3 0.15347 0.15347 0 0 1 0.01088-0.0073 0.15347 0.15347 0 0 1 0.0013-0.0012 0.15347 0.15347 0 0 1 0.01209-6e-3 0.15347 0.15347 0 0 1 0-0.0012c0.73951-0.45762 1.5641-0.78485 2.4096-1.0594a0.15347 0.15347 0 0 1 0.0013-0.0012c0.16879-0.05215 0.21865-0.17958 0.20152-0.31134-0.0171-0.13177-0.09742-0.24376-0.27391-0.25098zm20.788 0.64796c-0.16258 0.0054-0.24706 0.10618-0.27269 0.22926-0.02561 0.12308 0.01236 0.24874 0.15927 0.31855a0.15347 0.15347 0 0 1 0.0013 0.0012c0.71608 0.35036 1.4047 0.75758 1.8498 1.3575a0.15347 0.15347 0 0 1 0.0013 0.0024c0.17839 0.24686 0.29229 0.52965 0.29079 0.80965 0 9.12e-4 -5e-6 0.0027 0 0.0036 0.0013 0.28469-0.12201 0.56932-0.30528 0.8193a0.15347 0.15347 0 0 1-0.02049 0.0362 0.15347 0.15347 0 0 1-0.0013 0.0024c-0.45079 0.576-1.1223 0.97189-1.822 1.3128a0.15347 0.15347 0 0 1-0.0026 0.0012c-1.0393 0.48953-2.1544 0.82116-3.2881 1.0848-0.10604 0.02469-0.15915 0.07258-0.19185 0.13272-0.03269 0.06014-0.04146 0.13925-0.02417 0.21357 0.0173 0.07433 0.05994 0.14026 0.11584 0.17979 0.05594 0.03954 0.12442 0.05967 0.23047 0.035 1.1559-0.26878 2.3108-0.61041 3.4027-1.1246l0.0039-0.0012 0.0013-0.0012a0.15347 0.15347 0 0 1 0.0013 0c0.72726-0.35416 1.4875-0.78614 2.0295-1.4805a0.15347 0.15347 0 0 1 0.0013-0.0012v-0.0012c0.18222-0.23772 0.27424-0.58032 0.33907-0.94117a0.15347 0.15347 0 0 1 0.03497-0.07481c0.04592-0.05272 0.07143-0.11955 0.07118-0.18944-4e-5 -2.76e-4 3.2e-5 -9.8e-4 0-0.0012-4e-5 -2.59e-4 -0.0013-1e-3 -0.0013-0.0012v-0.0012c2.7e-5 -1.13e-4 0.0013-0.0032 0.0013-0.0036a0.15347 0.15347 0 0 1 0-0.0012c4.06e-4 -0.06761-0.02299-0.13275-0.06518-0.18462a0.15347 0.15347 0 0 1-0.03138-0.07118c-0.05812-0.33917-0.13856-0.66073-0.30286-0.88928a0.15347 0.15347 0 0 1-0.0039-0.0048c-0.53869-0.72701-1.3206-1.172-2.0622-1.5348a0.15347 0.15347 0 0 1-0.0013 0c-0.04284-0.02162-0.09074-0.03285-0.13876-0.03137zm-17.401 6.3082c-0.19585 0.0051-0.27173 0.12926-0.27994 0.27149-0.0082 0.14259 0.05346 0.27449 0.24857 0.30166a0.15347 0.15347 0 0 1 0.0026 0l0.27271 0.04464a0.15347 0.15347 0 0 1 0.01448 0.0012l0.29804 0.04464a0.15347 0.15347 0 0 1 0.0073 0.0012c2.151 0.30976 4.3261 0.42107 6.4941 0.37767a0.15347 0.15347 0 0 1 0.0059 0c0.11352 0.0016 0.17632-0.03471 0.22202-0.08687 0.04572-0.05217 0.07159-0.12911 0.06998-0.20754-2e-3 -0.07842-0.03065-0.15367-0.07842-0.20392-0.04783-0.05026-0.11228-0.08349-0.22564-0.07723a0.15347 0.15347 0 0 1-0.0052 0c-2.1377 0.04279-4.2784-0.06666-6.3915-0.37043a0.15347 0.15347 0 0 1-0.01209-0.0012 0.15347 0.15347 0 0 1-0.0039 0l-0.29442-0.04464a0.15347 0.15347 0 0 1-0.0013 0l-0.28235-0.04464a0.15347 0.15347 0 0 1-0.0039-0.0012c-0.01855-0.0034-0.03786-0.0051-0.05673-0.0048z" color="#000000" color-rendering="auto" dominant-baseline="auto" fill="#ececec" fill-opacity=".99673" image-rendering="auto" opacity=".544" shape-rendering="auto" solid-color="#000000" style="font-feature-settings:normal;font-variant-alternates:normal;font-variant-caps:normal;font-variant-ligatures:normal;font-variant-numeric:normal;font-variant-position:normal;isolation:auto;mix-blend-mode:normal;paint-order:stroke fill markers;shape-padding:0;text-decoration-color:#000000;text-decoration-line:none;text-decoration-style:solid;text-indent:0;text-orientation:mixed;text-transform:none;white-space:normal"/>
</svg>
