<?xml version="1.0" encoding="UTF-8" standalone="no"?>
<svg
   xmlns:dc="http://purl.org/dc/elements/1.1/"
   xmlns:cc="http://creativecommons.org/ns#"
   xmlns:rdf="http://www.w3.org/1999/02/22-rdf-syntax-ns#"
   xmlns:svg="http://www.w3.org/2000/svg"
   xmlns="http://www.w3.org/2000/svg"
   xmlns:xlink="http://www.w3.org/1999/xlink"
   id="svg8"
   version="1.1"
   viewBox="0 0 44.864892 44.864891"
   height="44.864891mm"
   width="44.864891mm">
  <defs
     id="defs2">
    <linearGradient
       gradientTransform="matrix(4.2392023,0,0,4.2392023,10.360773,39.086925)"
       y2="1.4517294e-05"
       x2="10.583249"
       y1="14.945449"
       x1="-3.7448082"
       gradientUnits="userSpaceOnUse"
       id="linearGradient3386-7"
       xlink:href="#c-7" />
    <linearGradient
       gradientUnits="userSpaceOnUse"
       y2="0"
       y1="40"
       x2="49.835999"
       x1="0"
       id="c-7">
      <stop
         id="stop2-5"
         stop-color="#00A1FF"
         offset="0%" />
      <stop
         id="stop4-3"
         stop-color="#0BC4E9"
         offset="50.843%" />
      <stop
         id="stop6-5"
         stop-color="#1EFFC3"
         offset="100%" />
    </linearGradient>
    <linearGradient
       x1="0"
       y1="0"
       x2="1"
       y2="0"
       gradientUnits="userSpaceOnUse"
       gradientTransform="matrix(-771.71071,-677.39038,-677.39038,771.71071,1679.5029,11663.941)"
       spreadMethod="pad"
       id="linearGradient4930">
      <stop
         style="stop-opacity:1;stop-color:#66c993"
         offset="0"
         id="stop4932" />
      <stop
         style="stop-opacity:1;stop-color:#4dc6f4"
         offset="0.999673"
         id="stop4934" />
      <stop
         style="stop-opacity:1;stop-color:#4dc6f4"
         offset="1"
         id="stop4936" />
    </linearGradient>
  </defs>
  <metadata
     id="metadata5">
    <rdf:RDF>
      <cc:Work
         rdf:about="">
        <dc:format>image/svg+xml</dc:format>
        <dc:type
           rdf:resource="http://purl.org/dc/dcmitype/StillImage" />
        <dc:title></dc:title>
      </cc:Work>
    </rdf:RDF>
  </metadata>
  <g
     transform="translate(-10.360415,-39.086987)"
     id="layer1">
    <rect
       id="use21-9"
       width="44.864891"
       height="44.864891"
       rx="4.4864888"
       x="10.360415"
       y="39.086987"
       style="fill:url(#linearGradient3386-7);fill-rule:evenodd;stroke-width:0.07000428" />
    <path
       id="path4290-5-9-1-0-5-2-5-0"
       d="m 32.455074,76.530409 c -0.07142,-0.01762 -0.201281,-0.07046 -0.28784,-0.115719 -0.237015,-0.124026 -7.663511,-5.400362 -8.021506,-5.699117 -0.450745,-0.376247 -1.210863,-1.173936 -1.547888,-1.62482 -1.02659,-1.373061 -1.617484,-2.81838 -1.872606,-4.580409 -0.08405,-0.582372 -0.07019,-2.509113 0.02113,-3.101561 0.438736,-2.801266 1.630505,-5.13 3.605859,-7.04543 1.911054,-1.852989 4.103163,-2.928442 6.865778,-3.368235 0.127749,-0.022 0.168497,-0.05193 0.23829,-0.189224 0.259281,-0.507824 0.846056,-0.858989 1.435899,-0.858989 0.589882,0 1.17678,0.351165 1.435938,0.858989 0.06556,0.128939 0.112612,0.168982 0.217694,0.186144 2.030401,0.327402 3.639858,0.943041 5.177072,1.980649 2.979333,2.011012 4.990613,5.320543 5.333689,8.775994 l 0.0496,0.50215 0.193714,0.172941 c 1.137784,1.017718 0.462424,2.856319 -1.049029,2.855568 -0.181125,-1.32e-4 -0.374839,-0.0176 -0.431166,-0.0396 -0.09202,-0.0396 -0.221876,0.0396 -1.252967,0.71342 -0.632663,0.414533 -1.25192,0.792496 -1.376182,0.840285 -0.319789,0.123224 -0.800041,0.09813 -1.11942,-0.05809 -0.276929,-0.135096 -0.537479,-0.409251 -0.674685,-0.709281 -0.127348,-0.277235 -0.1366,-0.509542 -0.05923,-1.542837 0.07437,-1.004077 0.04414,-2.122656 -0.07437,-2.670394 -0.276928,-1.287779 -0.83942,-2.3143 -1.787213,-3.262138 -1.28184,-1.281838 -2.795689,-1.914065 -4.583236,-1.914065 -0.843157,0 -1.621769,0.139494 -2.315532,0.415412 -2.114408,0.839934 -3.558917,2.538947 -4.059711,4.775092 -0.08361,0.373607 -0.09412,0.527979 -0.09202,1.307012 0.0019,0.752188 0.01673,0.943524 0.09285,1.289673 0.258005,1.161615 0.777601,2.22378 1.447116,2.95634 0.125243,0.136414 1.03634,0.863522 2.131302,1.699805 1.052266,0.80363 1.934715,1.477753 1.960938,1.497996 0.03344,0.02639 0.04414,-0.444282 0.02509,-1.945402 l -0.02112,-1.982232 -0.273978,-0.08713 c -0.965994,-0.306278 -1.750192,-0.995141 -2.179841,-1.914991 -0.265178,-0.567672 -0.309271,-0.786735 -0.309271,-1.534742 0,-0.763585 0.04582,-0.980621 0.328194,-1.567304 0.873371,-1.810609 3.037236,-2.558791 4.852308,-1.677711 0.966456,0.469054 1.636433,1.288218 1.931269,2.361163 0.08573,0.312439 0.119343,1.166633 0.058,1.488928 -0.268963,1.421385 -1.238219,2.487772 -2.611962,2.873395 l -0.329029,0.0924 v 2.158389 2.158298 l -0.109661,0.233231 c -0.145835,0.31112 -0.389979,0.567848 -0.679812,0.714475 -0.213472,0.108257 -0.278203,0.12013 -0.628167,0.12013 -0.311824,0 -0.427647,-0.0176 -0.575131,-0.08669 -0.257169,-0.120574 -4.061053,-3.038808 -4.430063,-3.398685 -1.360424,-1.326506 -2.182106,-3.388081 -2.183536,-5.478261 -0.0019,-1.853428 0.655103,-3.652378 1.855584,-5.085771 2.61352,-3.120615 7.153685,-3.776563 10.529799,-1.521319 1.986442,1.326902 3.271143,3.466716 3.515382,5.855253 0.05087,0.496914 0.02508,1.898359 -0.04414,2.628061 -0.02112,0.213868 -0.02949,0.394291 -0.02508,0.400451 0.0037,0.0043 0.435174,-0.267993 0.952798,-0.609521 l 0.941447,-0.620786 v -0.478078 c 0,-0.445734 0.01275,-0.493876 0.118941,-0.712451 0.135311,-0.267115 0.416029,-0.567013 0.671994,-0.717996 0.205065,-0.121018 0.206738,-0.133335 0.109661,-0.78823 -0.262229,-1.76929 -1.10051,-3.651584 -2.269977,-5.098622 -1.643874,-2.033894 -4.123629,-3.47081 -6.670287,-3.864925 l -0.316445,-0.04928 -0.210523,0.230149 c -0.139493,0.15226 -0.302581,0.275476 -0.483686,0.364808 -0.256333,0.126732 -0.300029,0.134652 -0.706245,0.134652 -0.406348,0 -0.450028,-0.0087 -0.706286,-0.134652 -0.180291,-0.0889 -0.344608,-0.212548 -0.482263,-0.363048 l -0.20885,-0.228829 -0.215143,0.02641 c -0.677708,0.08801 -1.62765,0.349845 -2.409324,0.663341 -2.043934,0.819825 -3.803116,2.262681 -5.026458,4.122623 -0.366875,0.558035 -0.924976,1.694172 -1.139759,2.321076 -0.22148,0.646617 -0.390814,1.344501 -0.498104,2.053961 -0.11178,0.742067 -0.121849,1.945709 -0.02112,2.674969 0.294573,2.14875 1.354708,4.036987 3.013455,5.367321 0.242911,0.194506 7.327995,5.231387 7.552485,5.368818 0.0752,0.04626 0.775287,-0.435222 7.455448,-5.128811 4.054752,-2.848878 7.470037,-5.275658 7.589506,-5.392845 0.125644,-0.123653 0.273144,-0.32608 0.349624,-0.482301 0.127362,-0.257874 0.131931,-0.289558 0.131931,-0.763057 V 62.78274 l -0.171041,-0.349404 c -0.09369,-0.191865 -0.350901,-0.589502 -0.570762,-0.883239 -0.219765,-0.293517 -0.426766,-0.598651 -0.460153,-0.677729 -0.08867,-0.210347 -0.04792,-0.501884 0.173118,-1.232512 0.308038,-1.018903 0.298356,-1.524089 -0.03785,-2.037503 -0.19248,-0.293517 -0.522642,-0.57612 -1.211994,-1.036463 -0.76672,-0.512092 -0.768483,-0.51513 -0.8258,-1.427013 -0.05127,-0.811641 -0.129425,-1.230663 -0.29079,-1.554235 -0.255099,-0.510641 -0.709186,-0.804116 -1.567934,-1.013406 -1.145179,-0.278996 -1.183881,-0.294837 -1.363996,-0.567365 -0.05923,-0.08934 -0.215144,-0.413212 -0.347116,-0.719139 -0.13153,-0.305839 -0.305487,-0.6651 -0.385799,-0.797822 -0.281987,-0.463951 -0.717462,-0.775995 -1.215103,-0.870342 -0.302142,-0.0572 -0.574546,-0.05193 -1.139508,0.022 -0.708597,0.09329 -0.985155,0.09021 -1.183166,-0.01318 -0.09078,-0.04665 -0.406349,-0.334443 -0.701791,-0.639973 -0.76764,-0.792717 -1.173756,-1.03114 -1.750656,-1.027575 -0.396271,0.0019 -0.582234,0.06293 -1.408707,0.459859 -0.695358,0.333562 -0.754863,0.354685 -1.006918,0.354685 -0.252548,0 -0.310151,-0.022 -1.006879,-0.356886 -0.835217,-0.403531 -0.990997,-0.454401 -1.396272,-0.457834 -0.591857,-0.0042 -0.967714,0.216068 -1.773135,1.042405 -0.313057,0.321241 -0.627952,0.608818 -0.700653,0.639973 -0.176067,0.07525 -0.477681,0.07217 -1.251459,-0.01318 -0.745283,-0.08185 -1.10227,-0.05236 -1.484726,0.12278 -0.487306,0.223108 -0.790544,0.620742 -1.181194,1.549041 -0.266851,0.635 -0.383685,0.815863 -0.602909,0.936879 -0.09412,0.05149 -0.494741,0.176023 -0.889762,0.275476 -0.817729,0.206385 -1.185353,0.366566 -1.465691,0.639576 -0.39165,0.38153 -0.514491,0.765742 -0.592443,1.854309 -0.03785,0.527496 -0.07898,0.85019 -0.117666,0.924382 -0.0954,0.181745 -0.337435,0.38725 -0.888121,0.752981 -0.825428,0.548705 -1.124591,0.880949 -1.256629,1.395681 -0.09835,0.38373 -0.058,0.753156 0.173117,1.580242 0.210128,0.753905 0.242472,1.064627 0.1307,1.273479 -0.03344,0.06777 -0.24247,0.359086 -0.45856,0.647147 -0.64199,0.856259 -0.829207,1.361136 -0.72919,1.966741 0.04414,0.268436 0.139937,0.540655 0.240358,0.682967 0.02508,0.04401 0.07732,0.0396 0.231954,-0.0176 0.309315,-0.105623 0.847821,-0.06514 1.158372,0.08669 0.311384,0.1527 0.626319,0.467517 0.779453,0.780837 0.109662,0.224428 0.120618,0.284715 0.120618,0.677819 3.02e-4,0.39957 -0.01275,0.451585 -0.130256,0.706642 -0.165593,0.349843 -0.435567,0.619774 -0.785711,0.785632 -0.252548,0.119257 -0.309712,0.130256 -0.68603,0.130256 -0.376116,0 -0.433851,-0.01318 -0.686073,-0.130256 -0.350065,-0.165463 -0.619718,-0.435657 -0.785672,-0.785632 -0.113886,-0.24027 -0.13153,-0.323002 -0.138663,-0.651813 l -0.01275,-0.376687 -0.187419,-0.254792 c -0.414371,-0.562738 -0.59721,-1.154393 -0.597672,-1.933163 0,-0.602435 0.09079,-0.983436 0.36771,-1.536806 0.113056,-0.22619 0.354246,-0.608159 0.535083,-0.849441 0.303814,-0.404851 0.326125,-0.447362 0.286608,-0.551302 -0.116392,-0.30716 -0.323177,-1.22965 -0.348392,-1.55705 -0.07353,-0.950786 0.273143,-1.850832 0.981875,-2.547002 0.160928,-0.157981 0.523654,-0.44472 0.80605,-0.636848 l 0.513401,-0.349405 0.02508,-0.525163 c 0.06095,-1.16078 0.31772,-1.851976 0.929813,-2.501059 0.499907,-0.52996 1.028938,-0.807547 2.012705,-1.056311 l 0.587278,-0.148299 0.218927,-0.501488 c 0.372728,-0.854501 0.763062,-1.392734 1.275033,-1.758067 0.759404,-0.541843 1.606301,-0.706071 2.863052,-0.555 l 0.437329,0.05236 0.40133,-0.418054 c 0.895514,-0.933051 1.675553,-1.31832 2.669028,-1.31832 0.595472,0 1.074873,0.129812 1.819025,0.492291 l 0.587907,0.286037 0.449441,-0.225749 c 0.8324,-0.417173 1.318864,-0.553327 1.981526,-0.553327 0.478732,0 0.917161,0.105179 1.363913,0.327401 0.443555,0.22047 0.792098,0.492159 1.271037,0.99114 l 0.400891,0.418052 0.437373,-0.05236 c 0.972757,-0.116621 1.702827,-0.04401 2.299939,0.229709 0.833237,0.381969 1.353193,0.971072 1.838101,2.082874 l 0.218927,0.501531 0.587277,0.148298 c 0.950821,0.240271 1.416737,0.475482 1.935894,0.976662 0.63283,0.61093 0.944223,1.386705 0.99679,2.483764 0.01673,0.252152 0.02949,0.500433 0.03785,0.55227 0.01673,0.06293 0.130699,0.165903 0.356797,0.312442 1.205063,0.777974 1.7575,1.528665 1.923239,2.613141 0.08155,0.53471 -0.01673,1.227226 -0.274816,2.022144 -0.05839,0.176902 -0.09079,0.340605 -0.07314,0.369647 0.01673,0.03081 0.166827,0.23367 0.331144,0.455108 0.335366,0.451674 0.675147,1.10564 0.782767,1.507456 0.109661,0.410573 0.09835,1.315547 -0.02112,1.737695 -0.170171,0.595308 -0.491843,1.105947 -0.957879,1.520172 -0.308876,0.274594 -14.999279,10.592686 -15.291595,10.740414 -0.216859,0.109561 -0.713895,0.15973 -0.958174,0.09682 z"
       style="opacity:1;fill:#ffffff;fill-opacity:1;stroke-width:0.05175101" />
  </g>
</svg>
