<svg width="125mm" height="125mm" version="1.1" viewBox="0 0 125 125" xmlns="http://www.w3.org/2000/svg">
 <path d="m10.358 118.56c-0.45553-0.45553-0.82824-15.704-0.82824-33.885 0-27.04 0.30599-33.174 1.6812-33.702 0.92466-0.35483 14.121-0.68527 29.325-0.73434 27.56-0.08887 27.637-0.08184 25.449 2.3365-2.0573 2.2733-3.7461 2.4256-26.897 2.4256h-24.702v59.493h59.493v-58.844l-13.146 13.105c-10.579 10.546-13.414 12.782-14.52 11.449-1.0924-1.3163 2.596-5.6196 18.002-21.003 10.657-10.641 19.376-19.764 19.376-20.273 0-0.50866-3.005-0.92484-6.6778-0.92484-5.1264 0-6.6778-0.42311-6.6778-1.8212 0-1.4839 2.0236-1.8212 10.927-1.8212h10.927v11.016c0 9.8409-0.2267 10.972-2.1247 10.6-1.718-0.33668-2.1031-1.632-2.0115-6.7668 0.06229-3.4927-0.2403-6.3504-0.67243-6.3504-0.43212 0-2.5231 1.7926-4.6466 3.9835l-3.8609 3.9835-0.32322 33.958-0.3232 33.958-33.471 0.32235c-18.409 0.1773-33.844-0.0504-34.299-0.50589zm70.443-41.258c-1.9078-1.9078-0.69523-4.0891 2.273-4.0891 2.3142 0 3.019 0.54735 2.7179 2.1108-0.42564 2.2102-3.5289 3.4403-4.9908 1.9783zm10.076-1.6608c0-1.6188 0.80943-2.4283 2.4283-2.4283s2.4283 0.80943 2.4283 2.4283c0 1.6188-0.80943 2.4283-2.4283 2.4283s-2.4283-0.80943-2.4283-2.4283zm10.927 0c0-1.6188 0.80943-2.4283 2.4283-2.4283s2.4283 0.80943 2.4283 2.4283c0 1.6188-0.80943 2.4283-2.4283 2.4283s-2.4283-0.80943-2.4283-2.4283zm11.146-0.20844c0.21338-1.4502 1.0706-2.8615 1.905-3.1363 2.2014-0.72498 3.4252 3.3752 1.3917 4.6628-2.739 1.7343-3.7104 1.2845-3.2967-1.5265zm-0.21908-10.719c0-1.6188 0.80943-2.4283 2.4283-2.4283 1.6188 0 2.4283 0.80943 2.4283 2.4283 0 1.6188-0.80943 2.4283-2.4283 2.4283-1.6188 0-2.4283-0.80943-2.4283-2.4283zm0-10.927c0-1.6188 0.80943-2.4283 2.4283-2.4283 1.6188 0 2.4283 0.80943 2.4283 2.4283s-0.80943 2.4283-2.4283 2.4283c-1.6188 0-2.4283-0.80943-2.4283-2.4283zm0-10.434c0-2.1123 0.67272-2.9217 2.4283-2.9217 1.5687 0 2.4283 0.80943 2.4283 2.2867 0 1.2656-1.0843 2.5702-2.4283 2.9217-1.9315 0.50509-2.4283 0.03725-2.4283-2.2867zm-64.349-0.4934c0-1.6189 0.80943-2.4283 2.4283-2.4283 1.6188 0 2.4283 0.80943 2.4283 2.4283 0 1.6189-0.80943 2.4283-2.4283 2.4283-1.6188 0-2.4283-0.80943-2.4283-2.4283zm0-9.7131c0-1.6189 0.80943-2.4283 2.4283-2.4283 1.6188 0 2.4283 0.80943 2.4283 2.4283 0 1.6189-0.80943 2.4283-2.4283 2.4283-1.6188 0-2.4283-0.80943-2.4283-2.4283zm64.349 0c0-1.6189 0.80943-2.4283 2.4283-2.4283 1.6188 0 2.4283 0.80943 2.4283 2.4283 0 1.6189-0.80943 2.4283-2.4283 2.4283-1.6188 0-2.4283-0.80943-2.4283-2.4283zm-64.349-10.927c0-1.6189 0.80943-2.4283 2.4283-2.4283 1.6188 0 2.4283 0.80943 2.4283 2.4283s-0.80943 2.4283-2.4283 2.4283c-1.6188 0-2.4283-0.80943-2.4283-2.4283zm64.349 0c0-1.6189 0.80943-2.4283 2.4283-2.4283 1.6188 0 2.4283 0.80943 2.4283 2.4283s-0.80943 2.4283-2.4283 2.4283c-1.6188 0-2.4283-0.80943-2.4283-2.4283zm-64.121-10.61c0.60951-3.1649 4.6281-3.5179 4.6281-0.4065 0 1.7376-0.77976 2.5173-2.5173 2.5173-1.7376 0-2.3914-0.65383-2.1108-2.1108zm10.699-0.31748c0-1.6189 0.80943-2.4283 2.4283-2.4283s2.4283 0.80943 2.4283 2.4283c0 1.6189-0.80943 2.4283-2.4283 2.4283s-2.4283-0.80943-2.4283-2.4283zm10.927 0c0-1.6189 0.80943-2.4283 2.4283-2.4283s2.4283 0.80943 2.4283 2.4283c0 1.6189-0.80943 2.4283-2.4283 2.4283s-2.4283-0.80943-2.4283-2.4283zm10.047 0c-0.13666-1.8143 0.56555-2.4283 2.777-2.4283 2.1505 0 2.9599 0.66405 2.9599 2.4283 0 1.7205-0.80943 2.4283-2.777 2.4283-1.9066 0-2.8343-0.7611-2.9599-2.4283zm10.593 0c0-1.6189 0.80943-2.4283 2.4283-2.4283s2.4283 0.80943 2.4283 2.4283c0 1.6189-0.80943 2.4283-2.4283 2.4283s-2.4283-0.80943-2.4283-2.4283zm10.927 0c0-1.6189 0.80943-2.4283 2.4283-2.4283s2.4283 0.80943 2.4283 2.4283c0 1.6189-0.80943 2.4283-2.4283 2.4283s-2.4283-0.80943-2.4283-2.4283zm10.927-0.08902c0-1.7376 0.65383-2.3914 2.1108-2.1108 3.1649 0.60951 3.5179 4.6281 0.4065 4.6281-1.7376 0-2.5173-0.77975-2.5173-2.5173z"/>
</svg>
