<svg width="23.955mm" height="23.957mm" version="1.1" viewBox="0 0 23.955 23.957" xmlns="http://www.w3.org/2000/svg">
 <path d="m4.2767 21.678c-0.25565-0.25565-0.25565-19.14 0-19.396 0.13029-0.13029 1.4368-0.17686 4.9624-0.17686h4.7855l1.0435 0.9861c0.57392 0.54236 1.8891 1.8135 2.9226 2.8249l1.8791 1.8388v6.0606c0 5.9922-0.0037 6.068-0.33161 6.7176-0.2185 0.4329-0.5327 0.7695-0.92115 0.9868-0.58642 0.32806-0.62534 0.32981-7.3766 0.33222-5.085 0.0018-6.8314-0.04192-6.9639-0.17444zm13.983-1.433 0.43081-0.43081v-11.189l-1.8837-0.058694c-2.1135-0.065845-2.6319-0.24972-3.2374-1.1482-0.30004-0.44523-0.33212-0.66864-0.33212-2.3133v-1.8205h-7.9587v17.391h12.55zm-0.75352-13.172c-0.1187-0.10473-0.86246-0.81333-1.6528-1.5747l-1.437-1.3843v1.2799c0 1.7565 0.11762 1.8694 1.9476 1.8694 1.123 0 1.3207-0.03295 1.1422-0.1904z" stroke-width=".14738"/>
</svg>
