<svg width="23.955mm" height="23.957mm" version="1.1" viewBox="0 0 23.955 23.957" xmlns="http://www.w3.org/2000/svg">
 <path d="m5.4375 3.459-3.7949 0.013672a0.10262 0.10262 0 0 0-0.044922 0.011719l-0.32812 0.16211c-0.39015 0.1921-0.63259 0.44132-0.82227 0.8457l-0.12695 0.27344a0.10262 0.10262 0 0 0-0.009766 0.042969v14.336a0.10262 0.10262 0 0 0 0.009766 0.04297l0.12695 0.26953c0.24066 0.51103 0.61595 0.83262 1.1426 0.97461 0.048639 0.01311 0.098265 0.01452 0.19531 0.01953 0.097047 5e-3 0.23164 0.0096 0.41406 0.01367 0.36485 0.0081 0.91499 0.01458 1.7051 0.01953 1.5802 0.0099 4.1189 0.01432 8.0391 0.01563 5.4864 0.0018 8.0875 0.0058 9.377-0.02539 0.64472-0.01558 0.96133-0.03909 1.1562-0.08008 0.19492-0.04099 0.26842-0.10939 0.36914-0.17383 0.37172-0.23782 0.60684-0.56706 0.72266-1.0117 0.03877-0.14885 0.05233-0.42021 0.0625-1.2949 0.01017-0.87471 0.01367-2.3461 0.01367-4.8613 0-2.0304-0.0052-3.5135-0.01367-4.5117-0.0042-0.4991-0.0089-0.8773-0.01563-1.1426-0.0034-0.13264-0.0076-0.23648-0.01172-0.31445-0.0041-0.077974-0.0075-0.1249-0.01563-0.16406-0.10855-0.52332-0.47321-0.97989-0.96288-1.2051l-0.24805-0.11328a0.10262 0.10262 0 0 0-0.04297-0.00977l-5.3437-0.013668-5.3008-0.0097656-1.0059-1.002c-0.42573-0.42353-0.69131-0.68403-0.87305-0.84375-0.18174-0.15972-0.28316-0.22723-0.38867-0.24609-0.038735-0.00693-0.064049-6e-3 -0.12695-0.00781-0.062905-0.00182-0.14891-0.00246-0.25586-0.00391-0.21389-0.00289-0.5114-0.00447-0.87109-0.00586-0.71938-0.00279-1.6868-4e-3 -2.7305 0zm-3.6367 1.2812h7.2871l0.99414 0.99023 1.0234 1.0215a0.10262 0.10262 0 0 0 0.07226 0.03125l5.4961 0.025391 5.4512 0.023437 0.11328 0.12695 0.11524 0.13086v11.896l-0.11133 0.11328-0.11524 0.11328h-20.324l-0.22656-0.22656v-14.02l0.11328-0.11328z" stroke-width=".049262"/>
</svg>
