<svg width="100mm" height="100mm" version="1.1" viewBox="0 0 100 100" xmlns="http://www.w3.org/2000/svg">
 <g transform="translate(0,-197)">
  <path d="m20.827 288.28c-1.46-0.72756-2.4514-2.2332-2.7722-4.21-0.24731-1.5242-0.24496-39.157 0.0026-40.495 0.54325-2.9387 2.252-4.5579 4.8139-4.5617l1.1391-2e-3 0.07741-5.3568c0.06687-4.6276 0.1283-5.6066 0.45128-7.1923 0.86714-4.2573 2.4263-7.7352 4.9596-11.063 4.2469-5.579 10.375-9.095 17.432-10.002 1.9472-0.25031 6.0303-0.1113 7.9708 0.27137 9.2103 1.8162 16.822 8.615 19.674 17.573 1.0703 3.3615 1.3997 6.2226 1.4062 12.213l0.0039 3.5569 1.1571 2e-3c2.6511 4e-3 4.3535 1.7214 4.8405 4.8837 0.12629 0.81994 0.16943 7.4152 0.13624 20.827l-0.04859 19.627-0.40007 0.99117c-0.56971 1.4114-1.3455 2.3461-2.4081 2.9012l-0.91637 0.47872h-56.632zm33.049-10.873c1.2686-0.64717 1.2759-0.68826 1.3334-7.5139l0.05112-6.0585 0.58049-0.84389c1.007-1.464 1.3275-2.5804 1.2493-4.3521-0.09615-2.1792-0.5458-3.2407-1.9954-4.7103-1.5759-1.5976-2.5258-1.9652-5.079-1.9652-2.3831 0-3.4072 0.3634-4.8883 1.7346-1.5015 1.3901-2.1051 2.7094-2.1966 4.801-0.08143 1.8618 0.27841 3.15 1.269 4.5427l0.57124 0.80319 0.05105 6.0534c0.05727 6.7921 0.06754 6.8513 1.2969 7.5004 0.56904 0.30045 0.99549 0.33859 3.8606 0.34533 2.8968 7e-3 3.2888-0.0271 3.8962-0.33694zm11.265-43.409c-0.0665-4.4002-0.12041-5.1865-0.44039-6.424-1.1739-4.5398-4.2236-8.1866-8.5312-10.202-2.2653-1.0596-3.217-1.2457-6.3253-1.2368-2.6168 7e-3 -2.8134 0.0324-4.2854 0.54275-5.0881 1.7642-8.7133 5.4924-10.218 10.508-0.35447 1.1819-0.3904 1.7011-0.45351 6.5546l-0.06854 5.271h30.398z" stroke-width=".17142"/>
 </g>
</svg>
