<svg width="44.865mm" height="44.865mm" version="1.1" viewBox="0 0 44.865 44.865" xmlns="http://www.w3.org/2000/svg" xmlns:xlink="http://www.w3.org/1999/xlink">
 <defs>
  <linearGradient id="linearGradient3386-7" x1="-3.0721" x2="6.8611" y1="14.183" y2="3.5876" gradientTransform="matrix(4.2392 0 0 4.2392 10.361 39.087)" gradientUnits="userSpaceOnUse">
   <stop stop-color="#00e092" stop-opacity=".94118" offset="0"/>
   <stop stop-color="#00e092" offset=".50843"/>
   <stop stop-color="#1EFFC3" offset="1"/>
  </linearGradient>
 </defs>
 <g transform="translate(-10.36 -39.087)">
  <rect x="10.36" y="39.087" width="44.865" height="44.865" rx="4.4865" fill="url(#linearGradient3386-7)" fill-rule="evenodd" stroke-width=".070004"/>
  <path d="m32.455 76.53c-0.07142-0.01762-0.20128-0.07046-0.28784-0.11572-0.23702-0.12403-7.6635-5.4004-8.0215-5.6991-0.45074-0.37625-1.2109-1.1739-1.5479-1.6248-1.0266-1.3731-1.6175-2.8184-1.8726-4.5804-0.08405-0.58237-0.07019-2.5091 0.02113-3.1016 0.43874-2.8013 1.6305-5.13 3.6059-7.0454 1.9111-1.853 4.1032-2.9284 6.8658-3.3682 0.12775-0.022 0.1685-0.05193 0.23829-0.18922 0.25928-0.50782 0.84606-0.85899 1.4359-0.85899 0.58988 0 1.1768 0.35116 1.4359 0.85899 0.06556 0.12894 0.11261 0.16898 0.21769 0.18614 2.0304 0.3274 3.6399 0.94304 5.1771 1.9806 2.9793 2.011 4.9906 5.3205 5.3337 8.776l0.0496 0.50215 0.19371 0.17294c1.1378 1.0177 0.46242 2.8563-1.049 2.8556-0.18112-1.32e-4 -0.37484-0.0176-0.43117-0.0396-0.09202-0.0396-0.22188 0.0396-1.253 0.71342-0.63266 0.41453-1.2519 0.7925-1.3762 0.84028-0.31979 0.12322-0.80004 0.09813-1.1194-0.05809-0.27693-0.1351-0.53748-0.40925-0.67468-0.70928-0.12735-0.27724-0.1366-0.50954-0.05923-1.5428 0.07437-1.0041 0.04414-2.1227-0.07437-2.6704-0.27693-1.2878-0.83942-2.3143-1.7872-3.2621-1.2818-1.2818-2.7957-1.9141-4.5832-1.9141-0.84316 0-1.6218 0.13949-2.3155 0.41541-2.1144 0.83993-3.5589 2.5389-4.0597 4.7751-0.08361 0.37361-0.09412 0.52798-0.09202 1.307 0.0019 0.75219 0.01673 0.94352 0.09285 1.2897 0.258 1.1616 0.7776 2.2238 1.4471 2.9563 0.12524 0.13641 1.0363 0.86352 2.1313 1.6998 1.0523 0.80363 1.9347 1.4778 1.9609 1.498 0.03344 0.02639 0.04414-0.44428 0.02509-1.9454l-0.02112-1.9822-0.27398-0.08713c-0.96599-0.30628-1.7502-0.99514-2.1798-1.915-0.26518-0.56767-0.30927-0.78674-0.30927-1.5347 0-0.76358 0.04582-0.98062 0.32819-1.5673 0.87337-1.8106 3.0372-2.5588 4.8523-1.6777 0.96646 0.46905 1.6364 1.2882 1.9313 2.3612 0.08573 0.31244 0.11934 1.1666 0.058 1.4889-0.26896 1.4214-1.2382 2.4878-2.612 2.8734l-0.32903 0.0924v4.3167l-0.10966 0.23323c-0.14584 0.31112-0.38998 0.56785-0.67981 0.71448-0.21347 0.10826-0.2782 0.12013-0.62817 0.12013-0.31182 0-0.42765-0.0176-0.57513-0.08669-0.25717-0.12057-4.0611-3.0388-4.4301-3.3987-1.3604-1.3265-2.1821-3.3881-2.1835-5.4783-0.0019-1.8534 0.6551-3.6524 1.8556-5.0858 2.6135-3.1206 7.1537-3.7766 10.53-1.5213 1.9864 1.3269 3.2711 3.4667 3.5154 5.8553 0.05087 0.49691 0.02508 1.8984-0.04414 2.6281-0.02112 0.21387-0.02949 0.39429-0.02508 0.40045 0.0037 0.0043 0.43517-0.26799 0.9528-0.60952l0.94145-0.62079v-0.47808c0-0.44573 0.01275-0.49388 0.11894-0.71245 0.13531-0.26712 0.41603-0.56701 0.67199-0.718 0.20506-0.12102 0.20674-0.13334 0.10966-0.78823-0.26223-1.7693-1.1005-3.6516-2.27-5.0986-1.6439-2.0339-4.1236-3.4708-6.6703-3.8649l-0.31644-0.04928-0.21052 0.23015c-0.13949 0.15226-0.30258 0.27548-0.48369 0.36481-0.25633 0.12673-0.30003 0.13465-0.70624 0.13465-0.40635 0-0.45003-0.0087-0.70629-0.13465-0.18029-0.0889-0.34461-0.21255-0.48226-0.36305l-0.20885-0.22883-0.21514 0.02641c-0.67771 0.08801-1.6276 0.34984-2.4093 0.66334-2.0439 0.81982-3.8031 2.2627-5.0265 4.1226-0.36688 0.55804-0.92498 1.6942-1.1398 2.3211-0.22148 0.64662-0.39081 1.3445-0.4981 2.054-0.11178 0.74207-0.12185 1.9457-0.02112 2.675 0.29457 2.1488 1.3547 4.037 3.0135 5.3673 0.24291 0.19451 7.328 5.2314 7.5525 5.3688 0.0752 0.04626 0.77529-0.43522 7.4554-5.1288 4.0548-2.8489 7.47-5.2757 7.5895-5.3928 0.12564-0.12365 0.27314-0.32608 0.34962-0.4823 0.12736-0.25787 0.13193-0.28956 0.13193-0.76306v-0.49386l-0.17104-0.3494c-0.09369-0.19186-0.3509-0.5895-0.57076-0.88324-0.21976-0.29352-0.42677-0.59865-0.46015-0.67773-0.08867-0.21035-0.04792-0.50188 0.17312-1.2325 0.30804-1.0189 0.29836-1.5241-0.03785-2.0375-0.19248-0.29352-0.52264-0.57612-1.212-1.0365-0.76672-0.51209-0.76848-0.51513-0.8258-1.427-0.05127-0.81164-0.12942-1.2307-0.29079-1.5542-0.2551-0.51064-0.70919-0.80412-1.5679-1.0134-1.1452-0.279-1.1839-0.29484-1.364-0.56736-0.05923-0.08934-0.21514-0.41321-0.34712-0.71914-0.13153-0.30584-0.30549-0.6651-0.3858-0.79782-0.28199-0.46395-0.71746-0.776-1.2151-0.87034-0.30214-0.0572-0.57455-0.05193-1.1395 0.022-0.7086 0.09329-0.98516 0.09021-1.1832-0.01318-0.09078-0.04665-0.40635-0.33444-0.70179-0.63997-0.76764-0.79272-1.1738-1.0311-1.7507-1.0276-0.39627 0.0019-0.58223 0.06293-1.4087 0.45986-0.69536 0.33356-0.75486 0.35468-1.0069 0.35468-0.25255 0-0.31015-0.022-1.0069-0.35689-0.83522-0.40353-0.991-0.4544-1.3963-0.45783-0.59186-0.0042-0.96771 0.21607-1.7731 1.0424-0.31306 0.32124-0.62795 0.60882-0.70065 0.63997-0.17607 0.07525-0.47768 0.07217-1.2515-0.01318-0.74528-0.08185-1.1023-0.05236-1.4847 0.12278-0.48731 0.22311-0.79054 0.62074-1.1812 1.549-0.26685 0.635-0.38368 0.81586-0.60291 0.93688-0.09412 0.05149-0.49474 0.17602-0.88976 0.27548-0.81773 0.20638-1.1854 0.36657-1.4657 0.63958-0.39165 0.38153-0.51449 0.76574-0.59244 1.8543-0.03785 0.5275-0.07898 0.85019-0.11767 0.92438-0.0954 0.18174-0.33744 0.38725-0.88812 0.75298-0.82543 0.5487-1.1246 0.88095-1.2566 1.3957-0.09835 0.38373-0.058 0.75316 0.17312 1.5802 0.21013 0.7539 0.24247 1.0646 0.1307 1.2735-0.03344 0.06777-0.24247 0.35909-0.45856 0.64715-0.64199 0.85626-0.82921 1.3611-0.72919 1.9667 0.04414 0.26844 0.13994 0.54066 0.24036 0.68297 0.02508 0.04401 0.07732 0.0396 0.23195-0.0176 0.30932-0.10562 0.84782-0.06514 1.1584 0.08669 0.31138 0.1527 0.62632 0.46752 0.77945 0.78084 0.10966 0.22443 0.12062 0.28472 0.12062 0.67782 3.02e-4 0.39957-0.01275 0.45158-0.13026 0.70664-0.16559 0.34984-0.43557 0.61977-0.78571 0.78563-0.25255 0.11926-0.30971 0.13026-0.68603 0.13026-0.37612 0-0.43385-0.01318-0.68607-0.13026-0.35006-0.16546-0.61972-0.43566-0.78567-0.78563-0.11389-0.24027-0.13153-0.323-0.13866-0.65181l-0.01275-0.37669-0.18742-0.25479c-0.41437-0.56274-0.59721-1.1544-0.59767-1.9332 0-0.60244 0.09079-0.98344 0.36771-1.5368 0.11306-0.22619 0.35425-0.60816 0.53508-0.84944 0.30381-0.40485 0.32612-0.44736 0.28661-0.5513-0.11639-0.30716-0.32318-1.2296-0.34839-1.557-0.07353-0.95079 0.27314-1.8508 0.98188-2.547 0.16093-0.15798 0.52365-0.44472 0.80605-0.63685l0.5134-0.3494 0.02508-0.52516c0.06095-1.1608 0.31772-1.852 0.92981-2.5011 0.49991-0.52996 1.0289-0.80755 2.0127-1.0563l0.58728-0.1483 0.21893-0.50149c0.37273-0.8545 0.76306-1.3927 1.275-1.7581 0.7594-0.54184 1.6063-0.70607 2.8631-0.555l0.43733 0.05236 0.40133-0.41805c0.89551-0.93305 1.6756-1.3183 2.669-1.3183 0.59547 0 1.0749 0.12981 1.819 0.49229l0.58791 0.28604 0.44944-0.22575c0.8324-0.41717 1.3189-0.55333 1.9815-0.55333 0.47873 0 0.91716 0.10518 1.3639 0.3274 0.44356 0.22047 0.7921 0.49216 1.271 0.99114l0.40089 0.41805 0.43737-0.05236c0.97276-0.11662 1.7028-0.04401 2.2999 0.22971 0.83324 0.38197 1.3532 0.97107 1.8381 2.0829l0.21893 0.50153 0.58728 0.1483c0.95082 0.24027 1.4167 0.47548 1.9359 0.97666 0.63283 0.61093 0.94422 1.3867 0.99679 2.4838 0.01673 0.25215 0.02949 0.50043 0.03785 0.55227 0.01673 0.06293 0.1307 0.1659 0.3568 0.31244 1.2051 0.77797 1.7575 1.5287 1.9232 2.6131 0.08155 0.53471-0.01673 1.2272-0.27482 2.0221-0.05839 0.1769-0.09079 0.3406-0.07314 0.36965 0.01673 0.03081 0.16683 0.23367 0.33114 0.45511 0.33537 0.45167 0.67515 1.1056 0.78277 1.5075 0.10966 0.41057 0.09835 1.3155-0.02112 1.7377-0.17017 0.59531-0.49184 1.1059-0.95788 1.5202-0.30888 0.27459-14.999 10.593-15.292 10.74-0.21686 0.10956-0.7139 0.15973-0.95817 0.09682z" fill="#fff" stroke-width=".051751"/>
 </g>
</svg>
