<svg width="11.491mm" height="10.185mm" version="1.1" viewBox="0 0 11.491 10.185" xmlns="http://www.w3.org/2000/svg">
 <g transform="translate(-131.08 -46.223)">
  <path transform="matrix(.94092 0 0 .94092 8.0834 3.0316)" d="m136.02 46.166c-0.35062 0-0.63632 0.14291-0.94531 0.46484l-0.10156 0.10547a0.041208 0.041208 0 0 1-2e-3 2e-3 0.041208 0.041208 0 0 1-0.0312 0.0098l-0.0996-0.01172a0.041208 0.041208 0 0 1-2e-3 0c-0.43318-0.05207-0.74102 0.0056-1.0098 0.19727-0.18365 0.13106-0.32266 0.32448-0.45117 0.61914l-0.0547 0.12695a0.041208 0.041208 0 0 1-8e-3 0.01367 0.041208 0.041208 0 0 1-0.0137 0.0098 0.041208 0.041208 0 0 1-6e-3 0l-0.15235 0.03906a0.041208 0.041208 0 0 1-0.0117 2e-3c-1e-3 3.36e-4 -3e-3 -3.38e-4 -4e-3 0-0.32743 0.08457-0.52037 0.1877-0.69336 0.37109-0.21535 0.22838-0.30914 0.48299-0.33008 0.88281l-8e-3 0.13086a0.041208 0.041208 0 0 1-0.0137 0.0293 0.041208 0.041208 0 0 1-4e-3 2e-3l-0.13281 0.0918c-0.099 0.06732-0.22006 0.16053-0.28125 0.2207-0.25077 0.24637-0.37575 0.57-0.34961 0.9082 0.01 0.12465 0.0711 0.3988 0.11718 0.52734a0.041208 0.041208 0 0 1-4e-3 0.0332c-0.01 0.01769-0.0311 0.05193-0.0801 0.11719-0.0641 0.08548-0.14588 0.21173-0.1875 0.29492-0.096 0.19184-0.13086 0.33752-0.13086 0.54688 1.4e-4 0.2723 0.0684 0.4885 0.21484 0.6875a0.041208 0.041208 0 0 1 0 2e-3l0.043 0.0625a0.041208 0.041208 0 0 1 8e-3 0.02148l4e-3 0.09766a0.041208 0.041208 0 0 1 0 2e-3c2e-3 0.10965 0.014 0.15851 0.0527 0.24023 0.0617 0.13011 0.16555 0.23166 0.29492 0.29297 0.0851 0.04042 0.12887 0.05078 0.25586 0.05078s0.17074-0.0105 0.25586-0.05078c0.12952-0.06139 0.23165-0.16332 0.29297-0.29297 0.0399-0.08574 0.0509-0.12866 0.0508-0.26367 0-0.13272-0.01-0.17831-0.0469-0.25391-0.0594-0.12174-0.16986-0.23183-0.29101-0.29102-0.12323-0.06019-0.28895-0.07273-0.41993-0.0332a0.041208 0.041208 0 0 1-0.041-0.0098 0.041208 0.041208 0 0 1-8e-3 -0.01172c-0.0181-0.0385-0.0435-0.09275-0.0547-0.16016-0.0155-0.09403-8e-3 -0.17587 0.0273-0.27148 0.0361-0.09676 0.1038-0.20861 0.21094-0.35156 0.0368-0.04903 0.0731-0.09819 0.10156-0.13867 0.0283-0.04018 0.044-0.06026 0.0566-0.08398a0.041208 0.041208 0 0 1 0-0.0039c0.0246-0.04696 0.0344-0.10615 0.0274-0.17773-8e-3 -0.07361-0.0284-0.16367-0.0645-0.29297-0.0776-0.2775-0.0887-0.3905-0.0586-0.50781 0.0204-0.07971 0.0517-0.14078 0.11133-0.20703 0.0608-0.06754 0.15292-0.14062 0.29101-0.23242 0.18885-0.1255 0.27448-0.19372 0.31836-0.27734 0.0116-0.02231 0.0115-0.02761 0.0156-0.04883 4e-3 -0.01968 8e-3 -0.04164 0.0117-0.06836 7e-3 -0.05373 0.0127-0.12673 0.0195-0.2168 0.0131-0.18291 0.0307-0.3032 0.0586-0.39062 0.0276-0.08617 0.0641-0.14185 0.125-0.20117 0.0849-0.08266 0.19666-0.13205 0.47071-0.20117 0.0679-0.01711 0.13716-0.03729 0.19335-0.05469 0.0575-0.01778 0.0889-0.02601 0.12305-0.04492 0.0418-0.02311 0.0821-0.06159 0.11524-0.11328 0.034-0.05304 0.0675-0.12378 0.11328-0.23242 0.0652-0.15493 0.11789-0.2609 0.17578-0.33789 0.0579-0.07699 0.12095-0.12416 0.19531-0.1582 0.11875-0.05436 0.22599-0.06254 0.47461-0.03516 0.2644 0.02914 0.36822 0.03631 0.45312 0 0.0285-0.01223 0.0238-0.01394 0.0449-0.03125 0.0167-0.01369 0.037-0.03287 0.0586-0.05273 0.0439-0.04032 0.0968-0.09151 0.15039-0.14648 0.13521-0.13875 0.23089-0.22239 0.31445-0.27148 0.0823-0.04834 0.15375-0.06524 0.2461-0.06445 0.0652 5.6e-4 0.10446 0.0036 0.16406 0.02344 0.0609 0.02028 0.14209 0.05882 0.2832 0.12695 0.11818 0.05708 0.18328 0.08738 0.23438 0.10547 0.0492 0.01742 0.0898 0.02148 0.13281 0.02148 0.0432 0 0.0838-4e-3 0.13281-0.02148 0.0509-0.01813 0.11642-0.04885 0.23438-0.10547 0.13969-0.06706 0.22282-0.10451 0.28516-0.125 0.0612-0.02011 0.1023-0.02494 0.16601-0.02539 0.0889-5.48e-4 0.16116 0.01745 0.24414 0.06641 0.0841 0.04963 0.17993 0.13276 0.30859 0.26562 0.0506 0.05231 0.10249 0.10212 0.14649 0.14258 0.0217 0.01993 0.0412 0.0384 0.0586 0.05273 0.0186 0.0153 0.0267 0.02086 0.0469 0.03125 0.0876 0.04517 0.19318 0.04359 0.43554 0.01172 0.18924-0.02481 0.27175-0.02779 0.36719-0.0098 0.15214 0.02886 0.28535 0.12516 0.37305 0.26953 0.0239 0.03936 0.0831 0.16155 0.12695 0.26367 0.0225 0.0521 0.0485 0.10474 0.0703 0.15039 0.0223 0.04658 0.0372 0.07822 0.0527 0.10156 0.029 0.04375 0.0703 0.08876 0.13476 0.11523 0.0689 0.02834 0.16719 0.05425 0.36133 0.10156 0.14135 0.03446 0.2435 0.0712 0.32227 0.12109 0.0788 0.04989 0.13307 0.11368 0.17187 0.19141 0.0493 0.09861 0.0746 0.233 0.0918 0.50586 0.01 0.15527 0.013 0.23881 0.0586 0.31641 0.0458 0.07798 0.11775 0.12195 0.24805 0.20898 0.23154 0.15462 0.33599 0.24464 0.39453 0.33398a0.041208 0.041208 0 0 1 0 2e-3 0.041208 0.041208 0 0 1 4e-3 0.0059c3.3e-4 5.18e-4 -3.3e-4 0.0014 0 2e-3a0.041208 0.041208 0 0 1 2e-3 0.0059c0.0464 0.07398 0.0724 0.14601 0.0742 0.23828 2e-3 0.09905-0.0228 0.22265-0.0742 0.39258-0.0378 0.12506-0.0604 0.21132-0.0703 0.28125-0.01 0.0692-6e-3 0.12555 0.0137 0.17188 0.0147 0.03472 0.029 0.054 0.0586 0.09766 0.0288 0.04244 0.0675 0.0938 0.10546 0.14453 0.0728 0.09732 0.15928 0.23327 0.1875 0.29102l0.0469 0.09766a0.041208 0.041208 0 0 1 4e-3 0.01758v0.14453c0 0.08047-5.5e-4 0.12034-6e-3 0.14844-4e-3 0.02324-0.0114 0.04231-0.0332 0.08594-0.0223 0.0453-0.0648 0.10533-0.10156 0.14258l-2e-3 2e-3c-5.7e-4 5.69e-4 -1e-3 0.0014-2e-3 2e-3 -4e-3 0.0034-8e-3 0.0082-0.0156 0.01367-9e-3 0.0067-0.025 0.01853-0.0449 0.0332-0.0383 0.02825-0.0932 0.06696-0.16016 0.11523-0.13538 0.09761-0.32544 0.23467-0.55859 0.40039-0.46623 0.33137-1.1003 0.77723-1.7871 1.2598-1.1317 0.79513-1.7568 1.2333-2.1016 1.4707-0.17237 0.11871-0.27465 0.18774-0.33398 0.22461-0.0135 0.0084-0.0178 0.0093-0.0254 0.01367a0.041208 0.041208 0 0 1-2e-3 2e-3 0.041208 0.041208 0 0 1-0.041-0.0039c-0.0185-0.01273-0.0338-0.02144-0.084-0.05664-0.0734-0.05146-0.17278-0.12337-0.29102-0.20703-0.23686-0.16758-0.54747-0.3869-0.85742-0.60742-0.3099-0.22048-0.6197-0.44126-0.85742-0.61133-0.11897-0.0851-0.21957-0.15802-0.29297-0.21094-0.0736-0.05301-0.12877-0.09169-0.12891-0.0918a0.041208 0.041208 0 0 1 0-2e-3c-0.55084-0.44178-0.90209-1.067-1-1.7812-0.0331-0.23858-0.0329-0.6471 4e-3 -0.89062 0.0358-0.23692 0.0941-0.4697 0.16797-0.68555 0.0701-0.20471 0.25933-0.59352 0.3789-0.77539 0.40821-0.62061 0.99607-1.1016 1.6777-1.375 0.26042-0.10447 0.57858-0.1898 0.80078-0.21875a0.041208 0.041208 0 0 1 4e-3 0h2e-3l0.0156-0.0039a0.041208 0.041208 0 0 1 0.0273 0.0059 0.041208 0.041208 0 0 1 0.01 0.0059l0.0371 0.03906a0.041208 0.041208 0 0 1 2e-3 0.0039c1e-3 0.0014 3e-3 0.0025 4e-3 0.0039 0.0507 0.05452 0.10986 0.09842 0.17578 0.13086 0.0859 0.0422 0.12706 0.05078 0.26368 0.05078 0.13653 0 0.17942-0.0083 0.26562-0.05078 0.0652-0.03204 0.12317-0.07502 0.17383-0.12891a0.041208 0.041208 0 0 1 6e-3 -0.0059 0.041208 0.041208 0 0 1 0-2e-3l0.0352-0.03906a0.041208 0.041208 0 0 1 6e-3 -0.0059 0.041208 0.041208 0 0 1 0.0332-0.0078l0.0566 0.0098c0.84621 0.13223 1.6739 0.61251 2.2207 1.2891 0.38954 0.482 0.67255 1.1112 0.75977 1.6992 0.0157 0.10578 0.0178 0.15258 0.0176 0.16992a0.041208 0.041208 0 0 1-0.01 0.02734h-2e-3a0.041208 0.041208 0 0 1 0 2e-3c-7.1e-4 8.06e-4 -2e-3 0.0019-2e-3 2e-3 -1e-3 0.0012-3e-3 0.0016-4e-3 2e-3 -2e-3 0.0016-3e-3 0.0031-4e-3 0.0039-2e-3 0.0015-3e-3 0.0025-6e-3 0.0039-0.0999 0.05894-0.19657 0.15946-0.25 0.26367a0.041208 0.041208 0 0 1-2e-3 2e-3c-0.0183 0.0374-0.0309 0.06868-0.0371 0.10742-6e-3 0.04034-8e-3 0.08434-8e-3 0.16016v0.10938a0.041208 0.041208 0 0 1-0.0117 0.0293 0.041208 0.041208 0 0 1-6e-3 0.0059l-0.27735 0.18164c-0.0623 0.04111-0.11288 0.07193-0.16211 0.10352a0.041208 0.041208 0 0 1-2e-3 2e-3 0.041208 0.041208 0 0 1-0.043-0.0039 0.041208 0.041208 0 0 1-0.01-0.0078 0.041208 0.041208 0 0 1-8e-3 -0.0293c0.0211-0.26144 0.031-0.67447 0.0137-0.84375-0.0845-0.82585-0.5298-1.5665-1.2168-2.0254-1.1675-0.77989-2.737-0.55166-3.6406 0.52734-0.41517 0.49571-0.64351 1.1164-0.64257 1.7578 4.9e-4 0.72311 0.28394 1.4364 0.75781 1.8984 0.04 0.03903 0.13912 0.11774 0.27929 0.22852 0.14 0.11062 0.31583 0.2471 0.49024 0.38086 0.17442 0.13377 0.34712 0.26473 0.48242 0.36523 0.0675 0.05016 0.12536 0.09331 0.16992 0.125 0.0457 0.03249 0.06 0.04473 0.0937 0.06055 0.0555 0.02597 0.11203 0.03516 0.21875 0.03516 0.11825 0 0.16637-0.01048 0.23828-0.04687 0.11043-0.05587 0.20101-0.15249 0.25586-0.26953l0.0371-0.07813c4e-3 -0.0074 6e-3 -0.01525 6e-3 -0.02344v-1.3887a0.041208 0.041208 0 0 1 0.0117-0.0293 0.041208 0.041208 0 0 1 0.01-0.0078 0.041208 0.041208 0 0 1 8e-3 -2e-3l0.041-0.01172c0.48454-0.13603 0.82912-0.5169 0.92383-1.0176 0.0258-0.13629 0.0172-0.396-0.0195-0.5293-0.10369-0.3774-0.34248-0.67037-0.68359-0.83594-0.64209-0.31168-1.4116-0.04703-1.7207 0.59375-0.0966 0.2007-0.11718 0.29642-0.11718 0.55664 0 0.25499 0.0206 0.34864 0.11133 0.54297 0.15216 0.32576 0.42945 0.57125 0.77148 0.67969l0.0254 0.0078a0.041208 0.041208 0 0 1 0.0176 0.0098 0.041208 0.041208 0 0 1 8e-3 0.0098 0.041208 0.041208 0 0 1 4e-3 0.01953l6e-3 0.59961v2e-3c3e-3 0.22765 3e-3 0.36361 2e-3 0.4668a0.041208 0.041208 0 0 1-0.0117 0.0293 0.041208 0.041208 0 0 1-0.0547 0.0039c-0.0248-0.01885-0.022-0.01614-0.0547-0.04102-0.1207-0.09196-0.28653-0.21733-0.46485-0.35352-0.18522-0.14146-0.35246-0.27451-0.48047-0.37695-0.0641-0.05124-0.12009-0.09529-0.16015-0.12891-0.0406-0.03408-0.0702-0.0624-0.0703-0.0625a0.041208 0.041208 0 0 1-2e-3 -2e-3c-0.2184-0.23898-0.39105-0.58948-0.47656-0.97461a0.041208 0.041208 0 0 1 0-2e-3c-0.0248-0.11404-0.0284-0.16977-0.0293-0.42383-7e-4 -0.26333 2e-3 -0.30578 0.0293-0.42969 0.16592-0.74081 0.63977-1.3 1.3398-1.5781 0.22766-0.09043 0.48414-0.13672 0.76368-0.13672 0.59207 0 1.0906 0.20588 1.5156 0.63086 0.31456 0.31456 0.4981 0.65334 0.58984 1.0801 0.0375 0.17306 0.0484 0.55045 0.0234 0.88672-0.0131 0.17545-0.0186 0.28263-0.0156 0.36328 3e-3 0.07923 0.0176 0.13642 0.041 0.1875a0.041208 0.041208 0 0 1 2e-3 0.0039 0.041208 0.041208 0 0 1 2e-3 0.0039c0.0533 0.11122 0.14349 0.20767 0.25 0.25976 0.1285 0.06288 0.29298 0.07186 0.42383 0.02148 0.0212-0.0082 0.0392-0.01737 0.0703-0.03516 0.0308-0.01757 0.0674-0.03881 0.10937-0.06445 0.085-0.05191 0.18895-0.12073 0.29688-0.19141 0.17457-0.11435 0.27489-0.17587 0.33008-0.20703 0.0237-0.01341 0.0327-0.02005 0.041-0.02344a0.041208 0.041208 0 0 1 0.0254-2e-3c0.0189 0.0041 0.0357 0.0084 0.0527 0.0098 0.029 0.0022 0.0601 0.0039 0.0918 0.0039 0.27847 1.43e-4 0.48619-0.17246 0.56641-0.39062 0.0802-0.21825 0.0354-0.48667-0.17383-0.67383a0.041208 0.041208 0 0 1 0-2e-3l-4e-3 -2e-3a0.041208 0.041208 0 0 1-2e-3 -2e-3 0.041208 0.041208 0 0 1 0-2e-3l-2e-3 -2e-3 -0.0293-0.02344a0.041208 0.041208 0 0 1-2e-3 -2e-3 0.041208 0.041208 0 0 1-8e-3 -0.0098 0.041208 0.041208 0 0 1-4e-3 -0.01563l-0.0117-0.13281c-0.11803-1.189-0.81045-2.3228-1.834-3.0137-0.5257-0.35484-1.0781-0.56553-1.7695-0.67774l0.0293-0.07422c6e-5 3.7e-5 -4e-3 -0.0039-4e-3 -0.0039 4e-5 2.6e-5 -0.0118-0.0039-0.0117-0.0039h-4e-3l-4e-3 0.04102c1e-5 -4.6e-5 -0.041 4e-3 -0.041 0.0039-1e-5 -8.1e-5 2e-3 6e-3 2e-3 0.0059-6e-5 -2.45e-4 -1.7e-4 0.0035 0 0.0039 6.8e-4 0.0017-6.1e-4 -0.0014-4e-3 -0.0078-0.0992-0.19448-0.31588-0.32227-0.53906-0.32226-0.22314 0-0.43807 0.12816-0.53711 0.32226-2e-3 0.0043-5e-3 0.0074-6e-3 0.0098-8e-5 2.19e-4 2e-3 -0.0099 2e-3 -0.0098-1e-5 6.3e-5 -2e-3 -0.01371-2e-3 -0.01367 0 0-0.0245 0.0074-0.0332 0.0098 6e-3 0.01655 0.0137 0.0332 0.0137 0.0332l-2e-3 2e-3c-3e-3 5.76e-4 -7e-3 0.0012-0.0117 2e-3 -0.94558 0.15054-1.7004 0.52108-2.3555 1.1562-0.67748 0.65692-1.088 1.4581-1.2383 2.418-0.0338 0.2207-0.039 0.8507-8e-3 1.0684 0.0876 0.60481 0.29352 1.106 0.64648 1.5781 0.11955 0.1599 0.37195 0.42546 0.53126 0.55859 0.0223 0.01856 0.0715 0.05443 0.15234 0.11328 0.0808 0.05882 0.18922 0.13721 0.3164 0.22852 0.25447 0.18268 0.58291 0.41788 0.91016 0.65039 0.32733 0.23256 0.65307 0.46344 0.90234 0.63867 0.12471 0.08766 0.22979 0.16165 0.30665 0.21484 0.0377 0.02612 0.0693 0.04598 0.0937 0.0625v-2e-3c0.025 0.01683 0.028 0.02136 0.0469 0.03125 0.0361 0.01886 0.0729 0.03592 0.10742 0.04492a0.041208 0.041208 0 0 1 4e-3 0c0.0546 0.01319 0.11876 0.01265 0.18555 0.0059 0.0671-0.0068 0.12557-0.01758 0.17578-0.04297 6e-3 -0.0031 6e-3 -2e-3 8e-3 -0.0039s8e-3 -0.0094 0.0176-0.01563c0.0152-0.01 0.0333-0.01806 0.0527-0.03125 0.0422-0.02852 0.10087-0.06881 0.17383-0.11914 0.14585-0.10063 0.34875-0.24201 0.58984-0.41016 0.48218-0.33628 1.1172-0.78065 1.752-1.2266 0.63472-0.44589 1.269-0.89465 1.752-1.2363 0.24144-0.17083 0.44542-0.31526 0.5918-0.41992 0.0733-0.05235 0.13138-0.09411 0.17383-0.125 0.0428-0.0312 0.0584-0.04303 0.0781-0.06055 0.16539-0.147 0.28143-0.32764 0.3418-0.53906 0.0469-0.166 0.0534-0.45711 0.01-0.62109-0.0406-0.15151-0.15677-0.36764-0.27539-0.52734-0.0274-0.03704-0.0526-0.07241-0.0723-0.09961v-2e-3c-9e-3 -0.01279-0.0108-0.01652-0.0156-0.02344a0.041208 0.041208 0 0 1-8e-3 -0.0332c4e-3 -0.01631 0.01-0.04212 0.0195-0.07031 0.0899-0.27477 0.12158-0.51772 0.0918-0.71289-0.0583-0.38123-0.25856-0.65574-0.67383-0.92383-0.037-0.02394-0.065-0.04379-0.082-0.05859-7e-3 -0.0058-0.0121-0.01215-0.0156-0.01758-2e-5 -2.07e-4 7e-5 -0.0015 0-2e-3 -1e-3 -0.0021-3e-3 -0.0034-4e-3 -0.0059-7e-4 -0.0016-2e-3 -0.0057-2e-3 -0.0059-2e-5 -9.8e-5 -2e-3 -0.0078-2e-3 -0.0078s4e-3 1.21e-4 6e-3 0c-6.5e-4 -0.0054-1e-3 -0.01268-2e-3 -0.01953-5.2e-4 -0.0055-2e-3 -0.0094-2e-3 -0.01563-2e-3 -0.03254-5e-3 -0.0717-8e-3 -0.11328a0.041208 0.041208 0 0 1 0-0.0039v-2e-3c-0.0188-0.37866-0.13187-0.65912-0.35547-0.875-0.17834-0.17216-0.35159-0.26237-0.66797-0.34375-6.6e-4 -1.7e-4 -1e-3 1.69e-4 -2e-3 0a0.041208 0.041208 0 0 1-0.0117-2e-3l-0.15234-0.03906a0.041208 0.041208 0 0 1-0.0273-0.02148 0.041208 0.041208 0 0 1 0-2e-3l-0.0547-0.12695c-0.16711-0.38316-0.35875-0.59788-0.65235-0.73242-0.21477-0.09835-0.47305-0.12422-0.80859-0.08398a0.041208 0.041208 0 0 1-2e-3 0l-0.0996 0.01172a0.041208 0.041208 0 0 1-0.0332-0.01172l-0.10156-0.10547c-0.16459-0.17147-0.29119-0.27011-0.44727-0.34766-0.15781-0.07841-0.31585-0.11719-0.48632-0.11719-0.23179 0-0.41203 0.05029-0.69727 0.19336l-0.10937 0.05469a0.041208 0.041208 0 0 1-2e-3 2e-3 0.041208 0.041208 0 0 1-0.0332-2e-3l-0.15625-0.07617c-0.25455-0.12474-0.43121-0.17188-0.64063-0.17188zm0.24024 1.4531c0 6.51e-4 3e-3 6.51e-4 4e-3 0-2e-3 8.82e-4 -4e-3 5.4e-5 -4e-3 0z" opacity=".995" stroke-width=".055"/>
 </g>
</svg>
