<svg width="44.865mm" height="44.865mm" version="1.1" viewBox="0 0 44.865 44.865" xmlns="http://www.w3.org/2000/svg">
 <defs>
  <linearGradient id="linearGradient887" x1="-3.0721" x2="6.8611" y1="14.183" y2="3.5876" gradientTransform="matrix(4.2392,0,0,4.2392,10.361,39.087)" gradientUnits="userSpaceOnUse">
   <stop stop-color="#00e092" stop-opacity=".94118" offset="0"/>
   <stop stop-color="#00e092" offset=".50843"/>
   <stop stop-color="#1EFFC3" offset="1"/>
  </linearGradient>
 </defs>
 <g transform="matrix(.98664 0 0 .98664 -9.9218 -38.265)">
  <rect x="10.36" y="39.087" width="44.865" height="44.865" rx="4.4865" fill="url(#linearGradient887)" fill-rule="evenodd" stroke-width=".070004"/>
 </g>
 <path d="m8.6813 10.527h27.539v3.8779l-4.0945 4.3157v15.646h-3.1849v-15.584l-1.8232-3.158-3.7435-1.003h-2.9395l-3.1868 1.8399-1.7332 3.002v14.903h-2.7682v-14.833l-2.5099-3.2888-1.6322-1.1212s0.056133-4.6149 0.076508-4.5966z" fill="#fff" fill-opacity=".43464"/>
 <path d="m12.223 35.505c-0.26863-0.18816-0.25576 0.20092-0.28665-8.7118l-0.02913-5.2128-0.14324-0.57189c-0.54238-2.1675-1.7006-3.8287-3.4965-5.0152-0.56778-0.37511-0.65057-0.47631-0.65057-0.79517 0-0.40072 0.4005-0.69654 0.80538-0.59492 0.34594 0.08683 1.3231 0.82778 2.049 1.5538 1.2359 1.2359 1.9785 2.503 2.4272 4.1414 0.32687 1.1935 0.30866-2.5094 0.33166 6.4404 0.01589 5.7949 0.0028 8.2839-0.03786 8.4258-0.08235 0.28152-0.28369 0.42503-0.59619 0.42503-0.14033 0-0.30654-0.0376-0.37347-0.08448zm3.2059-0.02734c-0.0781-0.0615-0.16865-0.20247-0.20096-0.31318-0.0413-0.14157-0.05321-2.7721-0.03998-8.8615 0.01853-8.5607 0.02119-5.4908 0.13264-5.9753 0.35663-1.5344 1.0251-2.7333 2.0983-3.7633 0.95912-0.92054 2.1548-1.5523 3.5025-1.8507 0.53124-0.11761 1.8127-0.16191 2.376-0.08214 3.0431 0.43082 5.4101 2.6243 6.1042 5.6569l0.12126 0.52952 0.01853 5.4852c0.01323 6.0895 0.0012 8.7199-0.03998 8.8615-0.08207 0.28146-0.28354 0.42503-0.59606 0.42503-0.14562 0-0.30664-0.03768-0.37969-0.08882-0.29174-0.20434-0.27869 0.21546-0.27869-8.971 0-7.2453-0.01322-5.4118-0.07996-5.8001-0.41284-2.3572-2.2548-4.2512-4.6314-4.7622-0.58925-0.12672-1.7528-0.12672-2.3421 0-2.3766 0.51102-4.2185 2.405-4.6314 4.7622-0.06803 0.38825-0.07996-1.4452-0.07996 5.8001 0 9.1864 0.01323 8.7666-0.27869 8.971-0.18348 0.12851-0.59775 0.11617-0.77477-0.02304zm16.309 0c-0.0781-0.0615-0.16865-0.20247-0.20122-0.31318-0.04156-0.14186-0.05268-2.6307-0.03786-8.4258 0.02382-8.9656 0.0027-5.2396 0.33714-6.4632 0.44516-1.6341 1.2653-3.012 2.5153-4.2259 0.81848-0.79489 1.7837-1.4682 2.105-1.4682 0.22505 0 0.50028 0.14437 0.588 0.30825 0.09611 0.1794 0.08711 0.51854-0.01853 0.66769-0.04475 0.06381-0.29913 0.25997-0.56539 0.43588-1.8272 1.2072-3.0123 2.9399-3.5417 5.1786-0.08976 0.37886-0.09875-2.158-0.12629 5.6214-0.03151 8.9125-0.01853 8.5237-0.28731 8.7118-0.17739 0.12419-0.59475 0.10934-0.76854-0.02735zm-23.776-25.059c-0.11835-0.05912-0.23007-0.17612-0.29478-0.30854-0.094516-0.19357-0.096901-0.23344-0.027273-0.4308 0.042366-0.11962 0.14614-0.26872 0.2306-0.33135l0.15383-0.11387h28.681l0.15383 0.11387c0.08446 0.062615 0.18851 0.21172 0.2306 0.33135 0.06964 0.19736 0.06726 0.23722-0.02728 0.4308-0.0646 0.13243-0.17633 0.24942-0.29478 0.30854-0.18003 0.08988-1.9888 0.09524-14.403 0.09524-12.414 0-14.223-0.0053-14.403-0.09524z" fill="#fff" stroke-width=".051592"/>
</svg>
