<svg width="16" height="16" version="1.1" viewBox="0 0 16 16" xmlns="http://www.w3.org/2000/svg">
 <path d="m7.82 14.678c-0.069439-0.013653-0.20392-0.10588-0.29886-0.20494l-0.1726-0.18012-0.016629-2.8353-0.01663-2.8353h-5.606l-0.18187-0.15303c-0.23306-0.19611-0.29141-0.47972-0.15699-0.76299 0.18991-0.4002 0.17974-0.39894 3.2227-0.39894h2.7255v-2.7255c0-3.0429-0.00125-3.0328 0.39894-3.2227 0.28328-0.13442 0.56689-0.076068 0.76299 0.15699l0.15303 0.18187v5.606l5.6705 0.033262 0.17672 0.16935c0.21478 0.20582 0.2748 0.46119 0.16829 0.71599-0.16083 0.38476-0.02102 0.36697-3.1407 0.39974l-2.8449 0.029885-0.029888 2.8449c-0.025317 2.4102-0.043587 2.8615-0.11954 2.953-0.088004 0.10606-0.42911 0.27672-0.52108 0.26071-0.025712-0.0045-0.10356-0.01931-0.173-0.03297z"/>
</svg>
