<svg width="20" height="20" version="1.1" viewBox="0 0 20 20" xmlns="http://www.w3.org/2000/svg">
 <path d="m10 0c-5.52 0-10 4.48-10 10s4.48 10 10 10 10-4.48 10-10-4.48-10-10-10zm-0.11914 4.1348c0.14121-0.007625 0.28491-0.0042923 0.38867 0.0097656 0.39058 0.05292 0.76343 0.23186 1.0547 0.50586 0.21882 0.20585 0.3751 0.43922 0.47852 0.71484 0.08407 0.22404 0.11311 0.38802 0.11328 0.65039 1.31e-4 0.20643-0.011618 0.30397-0.125 1.0117-0.06902 0.43085-0.1454 0.90131-0.16797 1.0449-0.02257 0.14362-0.054886 0.34932-0.072266 0.45703-0.01738 0.10771-0.051099 0.31674-0.074219 0.46484-0.02313 0.1481-0.051713 0.33523-0.064453 0.41602-0.01275 0.080777-0.03835 0.24269-0.05664 0.35938-0.01829 0.11669-0.046783 0.30382-0.064453 0.41602-0.01766 0.1122-0.047567 0.30265-0.066407 0.42383-0.16564 1.0661-0.16868 1.0739-0.24805 1.2383-0.054249 0.11236-0.093189 0.16793-0.19922 0.27344-0.14904 0.14831-0.25355 0.2116-0.44336 0.27539-0.16497 0.05544-0.40176 0.06861-0.56836 0.03125-0.31393-0.070411-0.59309-0.28368-0.73828-0.56445-0.06452-0.12477-0.096839-0.28336-0.21875-1.0586-0.071282-0.45329-0.13748-0.86802-0.14648-0.92188-0.0089511-0.053852-0.035575-0.21908-0.058594-0.36719-0.023019-0.1481-0.051595-0.33523-0.064453-0.41602-0.012858-0.080777-0.060351-0.38074-0.10547-0.66797-0.045118-0.28723-0.10255-0.65816-0.12891-0.82422-0.026357-0.16606-0.068633-0.42416-0.091797-0.57227s-0.060083-0.38568-0.083984-0.5293c-0.09753-0.58624-0.034665-1.0275 0.20703-1.4297 0.11086-0.18446 0.19512-0.28975 0.3418-0.42773 0.23394-0.22008 0.52813-0.38471 0.82812-0.46289 0.09516-0.024799 0.23379-0.043156 0.375-0.050781zm0.091797 9.0566c0.14083-0.003219 0.28285 0.010927 0.40234 0.044922 0.48907 0.13914 0.86643 0.56195 0.95508 1.0703 0.03065 0.17576 0.031133 0.25465 0.001953 0.43164-0.06159 0.37377-0.24413 0.66446-0.55664 0.88867-0.26071 0.18705-0.56602 0.26601-0.92188 0.23633-0.3119-0.026019-0.67669-0.22424-0.88281-0.47852-0.09949-0.12274-0.21191-0.33717-0.26172-0.5-0.031111-0.10169-0.037-0.15875-0.037109-0.3418-1.633e-4 -0.27166 0.026429-0.38813 0.13867-0.61524 0.15346-0.31052 0.43591-0.55786 0.76758-0.67188 0.11444-0.03934 0.2537-0.061234 0.39453-0.064453z" fill="#ffc85e"/>
</svg>
